<svg xmlns="http://www.w3.org/2000/svg" width="320" height="72" viewBox="0 0 320 72">
  <defs>
    <linearGradient id="wf1" x1="0%" y1="0%" x2="100%" y2="0%">
      <stop offset="0%" stop-color="#6366f1"/>
      <stop offset="50%" stop-color="#22d3ee"/>
      <stop offset="100%" stop-color="#34d399"/>
    </linearGradient>
    <linearGradient id="wf1b" x1="0%" y1="0%" x2="100%" y2="0%">
      <stop offset="0%" stop-color="#6366f1" stop-opacity="0.35"/>
      <stop offset="50%" stop-color="#22d3ee" stop-opacity="0.35"/>
      <stop offset="100%" stop-color="#34d399" stop-opacity="0.35"/>
    </linearGradient>
  </defs>
  <path d="M8,44 C22,30 36,30 50,44 C64,58 78,58 92,44" fill="none" stroke="url(#wf1b)" stroke-width="3" stroke-linecap="round"/>
  <path d="M8,30 C22,14 36,14 50,30 C64,46 78,46 92,30" fill="none" stroke="url(#wf1)" stroke-width="3.5" stroke-linecap="round"/>
  <path d="M12,22 C24,12 34,12 46,22 C58,32 68,32 80,22" fill="none" stroke="url(#wf1b)" stroke-width="2" stroke-linecap="round"/>
  <circle cx="8" cy="30" r="5" fill="#6366f1" opacity="0.2"/>
  <circle cx="8" cy="30" r="3.5" fill="#6366f1"/>
  <circle cx="50" cy="30" r="6" fill="#22d3ee" opacity="0.15"/>
  <circle cx="50" cy="30" r="4" fill="#22d3ee"/>
  <circle cx="92" cy="30" r="5" fill="#34d399" opacity="0.2"/>
  <circle cx="92" cy="30" r="3.5" fill="#34d399"/>
  <text x="110" y="33" fill="#e8eaf0" font-family="Outfit, sans-serif" font-size="22" font-weight="700" letter-spacing="-0.5">vCluster</text>
  <text x="110" y="52" fill="#6b7190" font-family="Outfit, sans-serif" font-size="11.5" font-weight="500" letter-spacing="3">MANAGER</text>
</svg>
